<svg xmlns="http://www.w3.org/2000/svg" xmlns:xlink="http://www.w3.org/1999/xlink" xmlns:serif="http://www.serif.com/" width="100%" height="100%" viewBox="0 0 247 103" xml:space="preserve" style="fill-rule:evenodd;clip-rule:evenodd;stroke-linejoin:round;stroke-miterlimit:2;"><g><g><path d="M48.851,90.195l-1.433,7.225c-0.213,1.072 -0.326,1.755 -0.326,2.051c0,0.135 -0,0.244 0.061,0.312c0.043,0.048 0.117,0.041 0.204,0.041c0.3,0 0.653,-0.156 1.074,-0.423c0.782,-0.494 1.728,-1.365 2.847,-2.602c0.18,-0.2 0.472,-0.255 0.712,-0.134c0.241,0.12 0.372,0.386 0.321,0.65l-0.264,1.362c-0.021,0.11 -0.073,0.213 -0.15,0.295c-2.29,2.457 -4.376,3.633 -6.195,3.633c-0.901,-0 -1.566,-0.267 -2.016,-0.739c-0.441,-0.463 -0.693,-1.147 -0.693,-2.072c0,-0.522 0.113,-1.381 0.348,-2.577c0,-0 0,-0.001 0.001,-0.001c-0,0 1.01,-5.098 1.009,-5.092c0.263,-1.39 0.4,-2.315 0.4,-2.775c-0,-0.269 -0.01,-0.472 -0.135,-0.579c-0.053,-0.046 -0.129,-0.052 -0.218,-0.052c-0.408,0 -1.137,0.165 -2.19,0.474c-0.201,0.059 -0.418,0.009 -0.572,-0.133c-0.155,-0.141 -0.225,-0.352 -0.184,-0.558l0.175,-0.893c0.042,-0.213 0.196,-0.387 0.402,-0.454l7.163,-2.344c0.206,-0.068 0.433,-0.018 0.592,0.129c0.16,0.146 0.228,0.368 0.178,0.579l-1.111,4.677Zm-3.042,-7.629c-0.115,0.232 -0.067,0.511 0.118,0.693c0.185,0.181 0.465,0.223 0.695,0.104l3.852,-1.992c0.118,-0.061 0.212,-0.159 0.268,-0.279l1.26,-2.695c0.113,-0.243 0.052,-0.531 -0.15,-0.706c-0.203,-0.176 -0.497,-0.196 -0.721,-0.05l-4.131,2.696c-0.09,0.058 -0.162,0.14 -0.21,0.237l-0.981,1.992Z" style="fill:#fff;"></path><path d="M64.059,97.243c0.049,-0.251 -0.066,-0.506 -0.288,-0.634c-0.221,-0.128 -0.499,-0.102 -0.693,0.066c-0.379,0.329 -0.643,0.563 -0.793,0.703c-1.086,1.005 -1.959,1.713 -2.621,2.116c-0.331,0.201 -0.579,0.33 -0.768,0.33c-0.091,0 -0.167,0.007 -0.212,-0.041c-0.057,-0.061 -0.054,-0.16 -0.054,-0.282c-0,-0.324 0.113,-1.017 0.326,-2.08l2.302,-11.573c0.603,-3.042 1.263,-5.115 2.017,-6.207c0.671,-0.971 1.68,-1.44 3.012,-1.44c0.752,-0 1.645,0.248 2.684,0.722c0.232,0.106 0.505,0.053 0.681,-0.131l2.009,-2.094c0.147,-0.154 0.202,-0.373 0.145,-0.578c-0.058,-0.204 -0.22,-0.363 -0.425,-0.417c-0.827,-0.217 -1.758,-0.327 -2.791,-0.327c-2.963,-0 -5.478,1.043 -7.544,3.129c-2.024,2.042 -3.413,4.891 -4.143,8.559l-2.009,10.108c-0.215,1.084 -0.319,1.948 -0.319,2.592c-0,0.933 0.247,1.623 0.68,2.089c0.447,0.481 1.107,0.752 2.001,0.752c1.771,-0 3.92,-1.2 6.379,-3.71c0.082,-0.084 0.138,-0.19 0.16,-0.305l0.264,-1.347Z" style="fill:#fff;"></path><path d="M79.114,84.959c0.555,-1.789 1.137,-3.17 1.735,-4.148c0.659,-1.076 1.583,-2.085 2.777,-3.021c2.045,-1.612 4.304,-2.414 6.772,-2.414c1.022,-0 1.951,0.11 2.787,0.327c0.207,0.053 0.369,0.212 0.427,0.417c0.058,0.205 0.002,0.426 -0.146,0.579l-2.006,2.08c-0.174,0.18 -0.442,0.233 -0.672,0.133c-1.069,-0.467 -1.973,-0.711 -2.719,-0.711c-1.341,-0 -2.359,0.472 -3.038,1.449c-0.762,1.097 -1.426,3.157 -2.028,6.168c-0,0 -2.3,11.602 -2.301,11.607c-0.221,1.07 -0.339,1.751 -0.339,2.046c-0,0.135 -0.001,0.244 0.06,0.312c0.044,0.048 0.118,0.041 0.205,0.041c0.304,0 0.66,-0.156 1.084,-0.423c0.785,-0.495 1.732,-1.365 2.851,-2.602c0.181,-0.201 0.474,-0.255 0.715,-0.133c0.241,0.122 0.371,0.39 0.317,0.655l-0.278,1.362c-0.022,0.108 -0.074,0.207 -0.148,0.288c-2.28,2.458 -4.362,3.634 -6.182,3.634c-0.905,-0 -1.573,-0.266 -2.025,-0.737c-0.445,-0.464 -0.698,-1.148 -0.698,-2.074c-0,-0.501 0.118,-1.371 0.363,-2.607l0.084,-0.423c-0.796,1.285 -1.669,2.402 -2.617,3.351c-1.687,1.686 -3.287,2.49 -4.76,2.49c-0.99,-0 -1.777,-0.265 -2.371,-0.76c-0.855,-0.712 -1.334,-1.941 -1.334,-3.721c0,-1.846 0.524,-3.781 1.585,-5.802c1.05,-1.997 2.407,-3.675 4.072,-5.035c1.146,-0.927 2.294,-1.545 3.44,-1.862c1.031,-0.287 2.494,-0.445 4.388,-0.466Zm-0.693,3.229c-0.986,-0.388 -1.979,-0.583 -2.979,-0.583c-1.56,-0 -2.767,1.044 -3.706,3.026c-1.215,2.562 -1.832,4.863 -1.832,6.907c-0,0.521 0.053,0.939 0.176,1.251c0.114,0.289 0.302,0.449 0.587,0.449c0.248,0 0.532,-0.124 0.868,-0.333c0.646,-0.403 1.413,-1.112 2.31,-2.118c1.528,-1.712 2.871,-3.664 4.03,-5.854l0.546,-2.745Z" style="fill:#fff;"></path><path d="M104.873,90.368c0.719,-1.168 1.5,-2.193 2.342,-3.078c1.622,-1.705 3.138,-2.51 4.492,-2.51c1.063,0 1.849,0.313 2.381,0.877c0.52,0.553 0.811,1.371 0.811,2.476c-0,0.578 -0.081,1.291 -0.246,2.137l-1.421,7.151c-0.213,1.063 -0.326,1.756 -0.326,2.08c0,0.122 -0.002,0.221 0.055,0.282c0.045,0.048 0.121,0.041 0.21,0.041c0.301,0 0.653,-0.156 1.075,-0.422c0.781,-0.494 1.727,-1.364 2.846,-2.6c0.181,-0.199 0.472,-0.254 0.713,-0.134c0.24,0.121 0.371,0.386 0.32,0.651l-0.264,1.36c-0.021,0.11 -0.073,0.212 -0.149,0.294c-2.284,2.456 -4.373,3.632 -6.207,3.632c-0.906,-0 -1.574,-0.266 -2.027,-0.736c-0.446,-0.463 -0.7,-1.147 -0.7,-2.073c0,-0.501 0.119,-1.37 0.366,-2.605l1.433,-7.15c0.125,-0.586 0.193,-1.012 0.193,-1.279c0,-0.367 -0.034,-0.615 -0.309,-0.615c-0.567,-0 -1.206,0.444 -1.977,1.228c-1.349,1.371 -2.958,3.765 -4.837,7.177l-1.08,5.209c-0.055,0.265 -0.28,0.46 -0.55,0.477l-2.871,0.175c-0.186,0.012 -0.366,-0.064 -0.488,-0.204c-0.123,-0.139 -0.173,-0.328 -0.137,-0.51c-0,-0 2.3,-11.619 2.3,-11.619c0.116,-0.591 0.179,-1.02 0.179,-1.289c-0,-0.18 -0.015,-0.334 -0.054,-0.46c-0.035,-0.118 -0.107,-0.184 -0.226,-0.184c-0.201,-0 -0.431,0.119 -0.71,0.308c-0.574,0.39 -1.262,1.077 -2.074,2.051c-1.394,1.673 -2.751,3.727 -4.074,6.161l-1.051,5.093c-0.055,0.266 -0.282,0.462 -0.553,0.478l-3.076,0.175c-0.189,0.011 -0.372,-0.068 -0.494,-0.214c-0.122,-0.145 -0.167,-0.34 -0.123,-0.524l1.081,-4.5l1.434,-7.226c0.212,-1.063 0.325,-1.756 0.325,-2.079c0,-0.116 0.004,-0.21 -0.051,-0.268c-0.046,-0.048 -0.122,-0.041 -0.214,-0.041c-0.297,-0 -0.646,0.156 -1.067,0.422c-0.781,0.495 -1.73,1.365 -2.855,2.602c-0.181,0.198 -0.472,0.253 -0.712,0.132c-0.241,-0.121 -0.371,-0.387 -0.319,-0.651l0.263,-1.346c0.022,-0.109 0.073,-0.21 0.148,-0.292c2.28,-2.467 4.367,-3.648 6.197,-3.648c0.901,0 1.566,0.267 2.016,0.74c0.442,0.463 0.693,1.147 0.693,2.074c0,0.521 -0.113,1.385 -0.348,2.592l-0.088,0.444c0.841,-1.34 1.727,-2.479 2.655,-3.421c1.625,-1.648 3.148,-2.429 4.521,-2.429c0.834,0 1.536,0.326 2.103,0.986c0.534,0.624 0.81,1.397 0.81,2.326c0,0.601 -0.085,1.322 -0.26,2.154l-0.024,0.122Z" style="fill:#fff;"></path><path d="M124.211,95.973l-0.001,0.071c-0,1.492 0.276,2.552 0.932,3.149c0.4,0.363 0.938,0.529 1.603,0.529c1.717,-0 3.798,-0.882 6.266,-2.589c0.2,-0.139 0.465,-0.142 0.669,-0.009c0.204,0.133 0.307,0.377 0.26,0.616l-0.22,1.128c-0.03,0.153 -0.117,0.288 -0.245,0.377c-3.235,2.259 -6.004,3.36 -8.283,3.36c-1.571,-0 -2.844,-0.557 -3.824,-1.657c-0.956,-1.075 -1.448,-2.461 -1.448,-4.167c0,-2.89 1.097,-5.612 3.312,-8.158c2.245,-2.581 4.657,-3.843 7.205,-3.843c1.052,0 1.9,0.363 2.551,1.072c0.633,0.69 0.963,1.583 0.963,2.687c0,1.073 -0.279,2.072 -0.844,2.992c-0.518,0.842 -1.277,1.619 -2.282,2.325c-1.868,1.314 -4.072,2.023 -6.614,2.117Zm0.14,-2.157c1.698,-0.221 3.054,-0.71 4.064,-1.491c1.073,-0.831 1.613,-1.904 1.613,-3.225c-0,-0.679 -0.096,-1.169 -0.392,-1.441c-0.157,-0.145 -0.373,-0.201 -0.635,-0.201c-1.016,0 -1.959,0.731 -2.908,2.082c-0.897,1.277 -1.477,2.703 -1.742,4.276Z" style="fill:#fff;"></path><path d="M145.578,90.195l-1.434,7.225c-0.212,1.072 -0.325,1.755 -0.325,2.051c-0,0.135 -0.001,0.244 0.06,0.312c0.044,0.048 0.118,0.041 0.205,0.041c0.3,0 0.652,-0.156 1.074,-0.423c0.781,-0.494 1.727,-1.365 2.846,-2.602c0.181,-0.2 0.472,-0.255 0.713,-0.134c0.24,0.12 0.371,0.386 0.32,0.65l-0.263,1.362c-0.022,0.11 -0.074,0.213 -0.15,0.295c-2.29,2.457 -4.376,3.633 -6.196,3.633c-0.9,-0 -1.565,-0.267 -2.015,-0.739c-0.442,-0.463 -0.693,-1.147 -0.693,-2.072c-0,-0.522 0.113,-1.381 0.348,-2.577c-0,-0 0,-0.001 0,-0.001c0,0 1.011,-5.098 1.01,-5.092c0.263,-1.39 0.4,-2.315 0.4,-2.775c-0,-0.269 -0.01,-0.472 -0.135,-0.579c-0.053,-0.046 -0.129,-0.052 -0.218,-0.052c-0.409,0 -1.137,0.165 -2.19,0.474c-0.201,0.059 -0.418,0.009 -0.573,-0.133c-0.154,-0.141 -0.224,-0.352 -0.184,-0.558l0.176,-0.893c0.042,-0.213 0.196,-0.387 0.402,-0.454l7.163,-2.344c0.206,-0.068 0.432,-0.018 0.592,0.129c0.16,0.146 0.227,0.368 0.177,0.579l-1.11,4.677Zm-3.043,-7.629c-0.114,0.232 -0.066,0.511 0.118,0.693c0.185,0.181 0.465,0.223 0.695,0.104l3.853,-1.992c0.117,-0.061 0.211,-0.159 0.267,-0.279l1.26,-2.695c0.114,-0.243 0.052,-0.531 -0.15,-0.706c-0.202,-0.176 -0.496,-0.196 -0.72,-0.05l-4.131,2.696c-0.09,0.058 -0.163,0.14 -0.21,0.237l-0.982,1.992Z" style="fill:#fff;"></path><path d="M148.997,100.722c-0.141,0.144 -0.2,0.35 -0.158,0.547c0.043,0.197 0.182,0.359 0.37,0.431c1.573,0.607 3.013,0.905 4.318,0.905c1.901,-0 3.596,-0.553 5.087,-1.656c1.571,-1.161 2.324,-2.501 2.324,-3.983c-0,-1.044 -0.672,-2.405 -2.114,-4.03c-0.003,-0.004 -1.205,-1.337 -1.205,-1.337c-0.994,-1.122 -1.545,-1.995 -1.545,-2.675c0,-0.447 0.094,-0.81 0.318,-1.079c0.364,-0.439 1.02,-0.606 1.932,-0.606c0.792,-0 1.363,0.132 1.68,0.502c0.186,0.218 0.262,0.513 0.262,0.876c0,0.067 -0.004,0.127 -0.015,0.177l-0.049,0.275c-0.031,0.175 0.017,0.354 0.131,0.49c0.114,0.135 0.282,0.214 0.459,0.214l0.938,-0c0.286,-0 0.532,-0.202 0.588,-0.482l0.644,-3.238c0.059,-0.295 -0.111,-0.589 -0.397,-0.685c-1.173,-0.395 -2.234,-0.588 -3.179,-0.588c-1.763,0 -3.33,0.56 -4.701,1.681c-1.421,1.162 -2.109,2.504 -2.109,4.002c-0,1.058 0.668,2.401 2.104,3.977l1.335,1.467c0.517,0.563 0.907,1.064 1.165,1.508c0.21,0.36 0.332,0.665 0.332,0.928c0,0.439 -0.208,0.801 -0.598,1.099c-0.455,0.349 -1.018,0.514 -1.682,0.514c-1.196,-0 -2.367,-0.432 -3.519,-1.276c-0.241,-0.176 -0.574,-0.149 -0.783,0.065l-1.933,1.977Z" style="fill:#fff;"></path><path d="M173.642,87.414l-1.896,9.552c-0.194,0.98 -0.296,1.668 -0.296,2.066c-0,0.205 0.014,0.368 0.105,0.47c0.07,0.078 0.183,0.088 0.321,0.088c0.966,-0 2.258,-0.768 3.932,-2.2c0.193,-0.166 0.471,-0.191 0.691,-0.062c0.221,0.128 0.335,0.382 0.286,0.632l-0.263,1.348c-0.023,0.118 -0.081,0.226 -0.167,0.311c-2.034,2.014 -4.008,2.986 -5.885,2.986c-1.033,-0 -1.796,-0.315 -2.313,-0.886c-0.497,-0.55 -0.777,-1.367 -0.777,-2.467c0,-0.684 0.109,-1.592 0.334,-2.724l1.82,-9.114l-2.624,0c-0.239,0 -0.454,-0.141 -0.55,-0.36c-0.095,-0.219 -0.051,-0.473 0.112,-0.648l1.01,-1.084c0.114,-0.121 0.273,-0.19 0.439,-0.19l2.058,-0l0.738,-3.665c0.046,-0.228 0.22,-0.409 0.447,-0.464l3.032,-0.732c0.199,-0.048 0.408,0.008 0.556,0.15c0.147,0.141 0.212,0.348 0.173,0.549l-0.825,4.162l4.792,-0c0.239,-0 0.455,0.141 0.55,0.36c0.095,0.219 0.052,0.473 -0.111,0.648l-1.201,1.289c-0.129,0.138 -0.315,0.207 -0.503,0.187c-1.236,-0.134 -2.332,-0.202 -3.29,-0.202l-0.695,0Z" style="fill:#fff;"></path><path d="M185.553,95.973l-0.002,0.071c0,1.492 0.276,2.552 0.932,3.149c0.4,0.363 0.938,0.529 1.603,0.529c1.717,-0 3.798,-0.882 6.266,-2.589c0.2,-0.139 0.465,-0.142 0.669,-0.009c0.204,0.133 0.307,0.377 0.26,0.616l-0.22,1.128c-0.029,0.153 -0.117,0.288 -0.245,0.377c-3.235,2.259 -6.003,3.36 -8.282,3.36c-1.572,-0 -2.845,-0.557 -3.824,-1.657c-0.957,-1.075 -1.448,-2.461 -1.448,-4.167c-0,-2.89 1.096,-5.612 3.311,-8.158c2.245,-2.581 4.658,-3.843 7.205,-3.843c1.052,0 1.9,0.363 2.551,1.072c0.633,0.69 0.963,1.583 0.963,2.687c0,2.056 -1.023,3.839 -3.126,5.317c-1.868,1.314 -4.072,2.023 -6.613,2.117Zm0.139,-2.157c1.698,-0.221 3.055,-0.71 4.064,-1.491c1.073,-0.831 1.613,-1.904 1.613,-3.225c-0,-0.679 -0.096,-1.169 -0.392,-1.441c-0.157,-0.145 -0.372,-0.201 -0.635,-0.201c-1.016,0 -1.959,0.731 -2.908,2.082c-0.897,1.277 -1.477,2.703 -1.742,4.276Z" style="fill:#fff;"></path><path d="M206.863,90.574c0.812,-1.26 1.699,-2.359 2.662,-3.299c1.732,-1.691 3.338,-2.495 4.777,-2.495c0.794,0 1.503,0.182 2.127,0.537c0.149,0.084 0.255,0.229 0.29,0.396c0.036,0.168 -0.002,0.342 -0.103,0.48l-1.949,2.647c-0.189,0.257 -0.546,0.32 -0.813,0.144c-0.45,-0.297 -0.821,-0.471 -1.134,-0.471c-0.648,0 -1.36,0.421 -2.18,1.181c-1.402,1.303 -3.016,3.578 -4.854,6.817l-1.05,5.246c-0.054,0.268 -0.282,0.466 -0.554,0.481l-3.106,0.175c-0.189,0.011 -0.372,-0.068 -0.494,-0.214c-0.121,-0.145 -0.167,-0.34 -0.122,-0.524l1.081,-4.496l1.419,-7.146c0.137,-0.677 0.208,-1.261 0.208,-1.754c-0,-0.184 -0.016,-0.341 -0.054,-0.47c-0.036,-0.12 -0.106,-0.19 -0.226,-0.19c-0.325,0 -0.698,0.16 -1.134,0.437c-0.799,0.507 -1.747,1.399 -2.853,2.666c-0.178,0.205 -0.473,0.264 -0.717,0.144c-0.243,-0.121 -0.376,-0.39 -0.322,-0.657l0.264,-1.302c0.022,-0.108 0.073,-0.208 0.148,-0.289c2.411,-2.598 4.539,-3.838 6.313,-3.838c0.909,0 1.58,0.289 2.034,0.809c0.43,0.492 0.675,1.221 0.675,2.206c0,0.748 -0.091,1.578 -0.275,2.488l-0.058,0.291Z" style="fill:#fff;"></path><path d="M221.987,95.973l-0.001,0.071c-0,1.492 0.276,2.552 0.932,3.149c0.4,0.363 0.938,0.529 1.603,0.529c1.717,-0 3.798,-0.882 6.266,-2.589c0.2,-0.139 0.465,-0.142 0.669,-0.009c0.204,0.133 0.307,0.377 0.26,0.616l-0.22,1.128c-0.03,0.153 -0.117,0.288 -0.245,0.377c-3.235,2.259 -6.004,3.36 -8.283,3.36c-1.571,-0 -2.844,-0.557 -3.824,-1.657c-0.956,-1.075 -1.448,-2.461 -1.448,-4.167c0,-2.89 1.097,-5.612 3.312,-8.158c2.245,-2.581 4.657,-3.843 7.205,-3.843c1.052,0 1.9,0.363 2.551,1.072c0.633,0.69 0.963,1.583 0.963,2.687c-0,2.056 -1.024,3.839 -3.126,5.317c-1.868,1.314 -4.072,2.023 -6.614,2.117Zm0.14,-2.157c1.698,-0.221 3.054,-0.71 4.064,-1.491c1.073,-0.831 1.613,-1.904 1.613,-3.225c-0,-0.679 -0.096,-1.169 -0.392,-1.441c-0.157,-0.145 -0.373,-0.201 -0.635,-0.201c-1.016,0 -1.959,0.731 -2.908,2.082c-0.897,1.277 -1.477,2.703 -1.742,4.276Z" style="fill:#fff;"></path><path d="M243.354,90.195l-1.434,7.225c-0.212,1.072 -0.325,1.755 -0.325,2.051c-0,0.135 -0.001,0.244 0.06,0.312c0.044,0.048 0.118,0.041 0.205,0.041c0.3,0 0.652,-0.156 1.074,-0.423c0.781,-0.494 1.727,-1.365 2.846,-2.602c0.181,-0.2 0.472,-0.255 0.713,-0.134c0.24,0.12 0.371,0.386 0.32,0.65l-0.263,1.362c-0.022,0.11 -0.074,0.213 -0.15,0.295c-2.29,2.457 -4.376,3.633 -6.196,3.633c-0.9,-0 -1.565,-0.267 -2.015,-0.739c-0.442,-0.463 -0.693,-1.147 -0.693,-2.072c-0,-0.522 0.113,-1.381 0.348,-2.577c-0,-0 -0,-0.001 0,-0.001c0,0 1.011,-5.098 1.01,-5.092c0.263,-1.39 0.4,-2.315 0.4,-2.775c-0,-0.269 -0.01,-0.472 -0.135,-0.579c-0.053,-0.046 -0.129,-0.052 -0.218,-0.052c-0.409,0 -1.137,0.165 -2.19,0.474c-0.201,0.059 -0.418,0.009 -0.573,-0.133c-0.154,-0.141 -0.224,-0.352 -0.184,-0.558l0.176,-0.893c0.042,-0.213 0.196,-0.387 0.402,-0.454l7.163,-2.344c0.206,-0.068 0.432,-0.018 0.592,0.129c0.16,0.146 0.227,0.368 0.177,0.579l-1.11,4.677Zm-3.043,-7.629c-0.114,0.232 -0.066,0.511 0.118,0.693c0.185,0.181 0.465,0.223 0.695,0.104l3.853,-1.992c0.117,-0.061 0.211,-0.159 0.267,-0.279l1.26,-2.695c0.114,-0.243 0.052,-0.531 -0.15,-0.706c-0.202,-0.176 -0.496,-0.196 -0.72,-0.05l-4.131,2.696c-0.09,0.058 -0.163,0.14 -0.21,0.237l-0.982,1.992Z" style="fill:#fff;"></path><path d="M36.188,74.846c0.472,-1.553 1.334,-4.602 1.742,-7.375c0.242,-1.646 0.328,-3.192 0.059,-4.252c-0.023,-0.087 -0.007,-0.18 0.042,-0.255c0,-0 0.206,-0.302 0.546,-0.318c0.243,-0.011 0.648,0.12 1.043,0.952c0.189,0.4 0.283,1.298 0.302,2.362c0.021,1.142 -0.032,2.482 -0.092,3.561l0.471,-1.16c0.208,-0.595 1.052,-0.608 1.275,-0.013c0.048,0.128 0.056,0.266 0.024,0.399c-0.115,0.476 -0.609,2.455 -1.305,4.485l-0,-0c-0.794,2.314 -3.376,8.462 -4.299,11.241c-1.297,3.91 -3.806,7.106 -4.766,8.593c1.222,-1.058 3.42,-3.67 4.243,-5.269c0.785,-1.523 2.021,-5.017 2.941,-7.203c0.422,-1.001 0.798,-1.737 1.031,-1.949c0.291,-0.265 0.535,-0.239 0.666,-0.158c0.097,0.06 0.198,0.183 0.226,0.406c0.069,0.543 -0.305,2.233 -0.825,4.88c-0.737,3.755 -3.756,9.322 -6.104,11.737c-1.992,2.049 -3.985,4.345 -4.493,4.934c-0.052,0.061 -0.694,0.74 -1.159,1.184c-0.227,0.217 -0.422,0.379 -0.505,0.422c-0.199,0.103 -0.868,0.204 -1.815,0.268c-2.063,0.139 -5.521,0.174 -8.009,0.083c-1.079,-0.04 -1.979,-0.104 -2.509,-0.193c-0.281,-0.047 -0.476,-0.111 -0.571,-0.17c-0.223,-0.138 -1.566,-1.505 -1.643,-1.594c-0.508,-0.589 -2.501,-2.885 -4.493,-4.934c-2.348,-2.415 -5.366,-7.982 -6.104,-11.737c-0.52,-2.647 -0.894,-4.337 -0.825,-4.88c0.029,-0.223 0.129,-0.346 0.226,-0.406c0.132,-0.081 0.375,-0.107 0.666,0.158c0.233,0.212 0.609,0.948 1.031,1.949c0.921,2.186 2.156,5.68 2.941,7.203c0.824,1.599 3.022,4.212 4.244,5.269c-0.961,-1.487 -3.469,-4.683 -4.767,-8.593c-0.922,-2.779 -3.505,-8.927 -4.299,-11.241c-0.695,-2.03 -1.189,-4.009 -1.305,-4.486c-0.032,-0.132 -0.024,-0.269 0.024,-0.397c0.223,-0.596 1.068,-0.583 1.275,0.012l0.472,1.161c-0.061,-1.079 -0.114,-2.42 -0.093,-3.562c0.019,-1.064 0.113,-1.962 0.303,-2.362c0.308,-0.65 0.648,-0.851 0.903,-0.897c0.475,-0.087 0.817,0.337 0.817,0.337c0.06,0.078 0.08,0.18 0.056,0.275c-0.27,1.061 -0.205,2.601 0.008,4.237c0.364,2.796 1.172,5.867 1.601,7.381c1.511,-4.219 2.174,-4.631 2.995,-5.523c0.309,-0.337 0.857,-0.272 1.079,0.128c0.116,0.209 0.111,0.465 -0.012,0.671c-2.942,4.928 -1.71,8.166 -1.48,11.298c0.194,2.655 1.751,5.173 3.083,7.116c0.927,1.353 1.748,2.441 1.992,3.117c0.592,1.644 1.567,2.96 2.435,4.8c0.384,0.813 0.942,1.301 1.312,1.555c0.224,-1.931 1.084,-9.112 1.85,-12.267c0.166,-0.684 0.335,-1.189 0.486,-1.435c0.137,-0.222 0.304,-0.301 0.431,-0.308c0.269,-0.015 0.435,0.068 0.542,0.189c0.097,0.111 0.157,0.279 0.147,0.523c-0.024,0.64 -0.577,2.13 -0.484,4.759c0.096,2.75 0.254,6.589 0.675,7.759c0.022,0.06 0.063,0.1 0.112,0.1c0.037,0 0.068,-0.026 0.087,-0.067c0.043,-0.47 0.43,-4.71 0.746,-7.844c0.274,-2.714 -0.215,-4.169 -0.208,-4.748c0.004,-0.251 0.087,-0.407 0.207,-0.503c0.111,-0.088 0.282,-0.143 0.546,-0.102c0.119,0.019 0.275,0.108 0.403,0.329c0.148,0.258 0.313,0.772 0.476,1.464c0.753,3.198 1.596,10.377 1.818,12.342c0.435,-0.306 1.114,-0.886 1.519,-1.746c0.868,-1.84 1.844,-3.156 2.436,-4.8c0.243,-0.676 1.064,-1.764 1.992,-3.117c1.331,-1.943 2.889,-4.461 3.083,-7.116c0.229,-3.132 1.456,-6.347 -1.486,-11.275c-0.123,-0.206 -0.128,-0.461 -0.012,-0.67c0.223,-0.401 0.77,-0.466 1.08,-0.129c0.817,0.887 1.753,1.283 2.953,5.415Z" style="fill:#fff;"></path></g><g><path d="M131.571,49.13c-0.466,-0.423 -0.212,-0.927 1.071,-2.126c0.693,-0.646 1.465,-1.443 1.716,-1.771c0.526,-0.684 0.796,-1.752 0.665,-2.626c-0.153,-1.02 -0.204,-1.101 -2.699,-4.315l-0.851,-1.097l0.696,0.369c0.381,0.202 1.22,0.573 1.862,0.824c5.54,2.159 10.003,1.692 13.391,-1.401c1.145,-1.045 2.099,-2.547 2.265,-3.562l0.105,-0.645l1.194,0.21c0.83,0.145 2.31,0.212 4.855,0.218c4.029,0.011 4.717,-0.083 6.687,-0.918c1.101,-0.467 1.172,-0.445 1.356,0.426c0.137,0.646 -0.156,1.099 -1.069,1.657c-1.096,0.671 -2.417,1.018 -5.338,1.406c-4.134,0.55 -4.189,0.564 -4.605,1.25c-2.651,4.373 -6.977,6.934 -13.544,8.018c-0.985,0.163 -1.931,0.324 -2.103,0.357c-0.192,0.036 -0.447,0.33 -0.663,0.76c-0.461,0.919 -1.843,2.059 -3.226,2.663c-1.178,0.513 -1.478,0.564 -1.765,0.303" style="fill:#fff;fill-rule:nonzero;"></path><path d="M120.837,17.421c0,-0 0.278,-3.189 -1.83,-5.981c-0.264,-0.349 -1.593,-1.006 -2.573,-1.454l-1.784,-0.813l0.438,-0.207c0.737,-0.352 4.137,-1.311 5.78,-1.632c2.223,-0.432 5.827,-0.433 7.744,-0.001c2.515,0.567 4.893,1.787 6.388,3.274l0.823,0.82l1.168,-0.208c0.742,-0.131 6.102,-0.32 7.959,0.215c1.401,0.403 1.568,0.932 3.184,2.996c1.905,2.431 2.974,2.953 7.161,3.495c0.857,0.11 4.523,0.479 4.916,0.364c3.447,-1.009 6.152,-6.913 6.593,-6.131c0.481,0.855 -0.727,7.667 -0.727,7.667c0,0 4.185,-1.636 5.03,-1.971c0.793,-0.314 2.844,-0.585 2.396,0.278c-0.246,0.474 -0.548,1.159 -0.636,1.847c-0.36,2.827 -2.792,7.704 -5.302,10.359c-1.139,1.207 -1.476,1.32 -3.573,1.197c-2.306,-0.135 -7.528,-1.046 -7.528,-1.313c-0,-0.035 0.426,-0.422 0.947,-0.86c2.29,-1.929 4.427,-4.555 6.083,-7.476c1.486,-2.621 2.273,-6.874 2.226,-6.944c-0.048,-0.071 -4.941,7.208 -8.477,9.872c-1.309,0.986 -3.467,2.219 -4.81,2.748c-1.293,0.51 -3.377,0.891 -3.627,0.663c-0.081,-0.074 -0.053,-1.939 -0.053,-1.939l3.21,-0.895c2.721,-0.632 6.376,-4.147 6.376,-4.147c-0,0 -6.295,-1.161 -8.309,-2.016c-1.502,-0.638 -2.898,-2.397 -3.775,-3.116c-1.479,-1.212 -3.593,-2.273 -8.718,-1.381c-1.343,0.234 -2.671,0.425 -2.953,0.425c-0.479,0 -0.531,-0.05 -0.84,-0.814c-0.751,-1.854 -2.09,-2.845 -4.878,-3.613c-1.763,-0.485 -3.61,-0.578 -4.946,-0.251l-0.677,0.165l0.076,0.975c0.091,1.147 0.615,2.013 1.732,2.861c0.649,0.492 4.148,2.767 4.093,3.078c-0.158,0.904 -0.393,1.313 -1.001,1.439c-9.197,1.903 -16.232,1.851 -16.232,2.06c0,0.344 1.926,5.017 2.189,5.553c0.611,1.244 1.287,2.837 1.517,3.636c1.373,4.776 0.956,10.386 -1.143,15.391c-1.099,2.62 -2.845,5.69 -4.825,8.482c-1.982,2.796 -7.734,9.209 -8.261,9.209c-0.202,-0 -0.219,-0.59 -0.134,-4.711l0.098,-4.711l2.229,-1.949c2.651,-2.317 3.908,-3.657 5.22,-5.563c1.77,-2.568 2.607,-4.676 2.958,-7.44c0.434,-3.416 -0.707,-7.469 -3.137,-11.132c-1.708,-2.577 -3.807,-4.927 -6.953,-7.789c-0.621,-0.566 -1.13,-1.075 -1.13,-1.134c0,-0.141 0.79,-1.262 2.039,-2.892c1.401,-1.829 2.062,-2.954 2.622,-4.463c0.425,-1.147 0.467,-1.413 0.414,-2.652c-0.053,-1.273 -0.106,-1.469 -0.716,-2.621c-0.545,-1.031 -0.885,-1.446 -1.979,-2.423c-0.727,-0.647 -1.346,-1.154 -1.376,-1.127c-0.03,0.028 0.117,0.558 0.327,1.178c0.576,1.696 0.496,2.9 -0.227,3.437c-0.135,0.101 -0.909,0.47 -1.719,0.82c-1.898,0.819 -2.352,1.145 -3.051,2.192c-0.95,1.423 -1.217,2.513 -1.595,6.509l-0.113,1.205l-1.039,0.104c-2.256,0.226 -4.596,1.314 -6.456,3c-1.377,1.247 -2.034,2.241 -2.189,3.307c-0.116,0.803 -0.368,1.149 -1.98,2.727c-3.862,3.776 -5.549,5.981 -5.549,7.25c-0,0.636 0.529,1.036 1.76,1.333c0.945,0.227 1.162,0.183 2.121,-0.438c1.046,-0.677 2.577,-1.341 3.824,-1.659c1.284,-0.327 2.78,-0.371 6.572,-0.193l2.672,0.125l0.345,2.028c0.19,1.116 0.305,2.176 0.254,2.357c-0.05,0.181 -0.321,0.486 -0.602,0.677c-0.754,0.514 -2.77,0.558 -5.609,0.121c-2.337,-0.359 -2.24,-0.367 -4.464,0.367c-4.161,1.374 -7.625,0.962 -9.95,-1.186c-0.905,-0.835 -1.924,-1.799 -1.53,-2.781c0.823,-2.057 3.05,-5.136 6.47,-9.56c3.304,-4.272 4.927,-6.073 6.972,-7.73c1.639,-1.328 2.442,-1.792 3.906,-2.257c0.838,-0.267 1.087,-0.419 1.312,-0.801c0.849,-1.438 1.363,-3.979 2.594,-5.461c1.232,-1.482 3.818,-1.871 4.797,-3.431c0.978,-1.559 -0.452,-6.419 1.075,-5.925c1.526,0.495 8.14,6.444 8.085,8.892c-0.023,1.027 -1.102,3.787 -1.799,4.975c-2.29,3.898 0.007,4.227 0.007,4.227l14.073,-0.708Zm45.178,4.19c-0.744,0.57 -1.11,2.154 -1.801,3.145c-0.812,1.166 -3.075,3.854 -3.075,3.854c0,0 1.671,0.3 2.516,0.337c0.905,0.04 2.416,0.087 2.913,-0.096c0.314,-0.115 0.082,-0.665 0.073,-0.999c-0.016,-0.594 -0.241,-1.896 -0.169,-2.564c0.056,-0.519 0.331,-1.132 0.602,-1.445c0.242,-0.28 0.656,-0.384 1.023,-0.433c0.433,-0.058 1.577,0.084 1.577,0.084c0,0 0.569,-1.54 0.626,-1.95c0.027,-0.192 -0.093,-0.484 -0.286,-0.508c-0.271,-0.034 -0.886,0.238 -1.339,0.304c-0.667,0.096 -1.952,-0.271 -2.66,0.271Z" style="fill:#fff;"></path></g></g></svg>