<svg xmlns="http://www.w3.org/2000/svg" xmlns:xlink="http://www.w3.org/1999/xlink" xmlns:serif="http://www.serif.com/" width="100%" height="100%" viewBox="0 0 491 135" xml:space="preserve" style="fill-rule:evenodd;clip-rule:evenodd;stroke-miterlimit:3.864;"><g><path d="M25.364,73.955c-0.026,1.531 -0.582,2.915 -1.668,4.152c-1.087,1.237 -2.55,2.222 -4.392,2.955c-1.841,0.733 -3.907,1.107 -6.196,1.125c-1.661,0 -3.618,-0.222 -5.87,-0.665c-0.746,-0.144 -1.303,-0.242 -1.67,-0.295c-0.368,-0.052 -0.722,-0.077 -1.061,-0.074c-0.652,-0.003 -1.25,0.068 -1.795,0.212c-0.546,0.145 -1.116,0.382 -1.712,0.711c0.447,-2.32 1.139,-4.215 2.076,-5.685c0.937,-1.47 2.201,-2.664 3.793,-3.581c-0.234,0.572 -0.393,1.034 -0.475,1.385c-0.083,0.35 -0.121,0.701 -0.115,1.052c0.019,0.978 0.336,1.905 0.95,2.782c0.613,0.877 1.403,1.594 2.369,2.15c0.966,0.558 1.989,0.845 3.067,0.863c1.512,-0.033 2.761,-0.52 3.747,-1.462c0.986,-0.942 1.497,-2.141 1.532,-3.595c-0.018,-1.661 -0.646,-2.953 -1.883,-3.876c-0.526,-0.397 -1.199,-0.729 -2.016,-0.997c-0.818,-0.267 -1.942,-0.526 -3.374,-0.775c-2.097,-0.372 -3.707,-0.773 -4.826,-1.205c-1.12,-0.431 -2.009,-0.989 -2.667,-1.674c-0.464,-0.47 -0.82,-0.981 -1.066,-1.533c-0.247,-0.551 -0.372,-1.099 -0.374,-1.642c0.024,-1.283 0.518,-2.446 1.482,-3.49c0.964,-1.043 2.257,-1.875 3.877,-2.496c1.621,-0.621 3.428,-0.939 5.42,-0.954c1.502,0 3.077,0.185 4.726,0.553c0.911,0.214 1.552,0.35 1.924,0.406c0.371,0.058 0.763,0.082 1.177,0.074c0.693,0.005 1.337,-0.07 1.933,-0.226c0.596,-0.156 1.305,-0.425 2.127,-0.807c-0.268,1.02 -0.526,1.831 -0.775,2.431c-0.249,0.601 -0.544,1.181 -0.886,1.74c-0.36,0.579 -0.757,1.036 -1.19,1.37c-0.434,0.335 -0.849,0.506 -1.246,0.513c-0.733,0.03 -1.926,-0.843 -3.581,-2.621c-0.752,-0.819 -1.418,-1.396 -1.998,-1.731c-0.581,-0.334 -1.219,-0.496 -1.915,-0.484c-1.044,0.024 -1.919,0.354 -2.626,0.988c-0.707,0.633 -1.074,1.423 -1.103,2.371c0.006,0.563 0.16,1.089 0.461,1.578c0.302,0.489 0.714,0.886 1.238,1.191c0.311,0.19 0.631,0.351 0.961,0.48c0.329,0.129 0.791,0.264 1.387,0.406c0.596,0.141 1.45,0.326 2.561,0.553c1.566,0.325 2.864,0.673 3.895,1.044c1.03,0.37 1.922,0.81 2.676,1.319c0.969,0.662 1.726,1.47 2.27,2.427c0.545,0.957 0.822,1.969 0.831,3.037" style="fill:#231f20;fill-rule:nonzero;"></path><path d="M55.843,56.419l-1.255,8.381l-0.812,0c-0.562,-1.876 -1.432,-3.303 -2.608,-4.283c-1.175,-0.979 -2.718,-1.558 -4.628,-1.735l-0,17.572l0.037,2.215c0,0.852 0.157,1.484 0.471,1.897c0.314,0.412 0.895,0.703 1.744,0.871l0,0.739l-10.779,0l0,-0.739c0.984,-0.196 1.636,-0.577 1.956,-1.144c0.108,-0.183 0.179,-0.38 0.213,-0.59c0.033,-0.211 0.048,-0.556 0.046,-1.034l0.036,-2.215l0,-17.498c-1.983,0.079 -3.627,0.65 -4.933,1.712c-1.305,1.063 -2.109,2.473 -2.413,4.232l-0.849,0l-1.181,-8.381l0.443,0c0.443,0.304 0.857,0.53 1.243,0.679c0.386,0.149 0.89,0.246 1.513,0.292c0.624,0.047 1.514,0.067 2.671,0.063l12.034,0c1.414,0.004 2.519,-0.02 3.315,-0.071c0.797,-0.051 1.438,-0.151 1.922,-0.301c0.484,-0.149 0.966,-0.37 1.445,-0.662l0.369,0" style="fill:#231f20;fill-rule:nonzero;"></path><path d="M87.959,77.776c-0.177,0.829 -0.377,1.489 -0.6,1.98c-0.224,0.492 -0.516,0.94 -0.878,1.343c-0.959,1.046 -2.177,1.575 -3.654,1.587c-1.458,-0.03 -2.676,-0.56 -3.655,-1.587c-0.53,-0.559 -0.945,-1.232 -1.246,-2.017c-0.299,-0.785 -0.512,-1.872 -0.636,-3.262c-0.136,-1.637 -0.557,-2.986 -1.265,-4.047c-0.707,-1.06 -1.664,-1.754 -2.87,-2.081l-0,-0.443l0.369,0c1.591,-0.018 2.857,-0.443 3.798,-1.274c0.94,-0.83 1.422,-1.956 1.444,-3.377c-0.034,-1.909 -0.796,-3.425 -2.289,-4.55c-1.492,-1.125 -3.51,-1.7 -6.054,-1.726c-1.219,-0.008 -2.398,0.118 -3.539,0.378c-1.14,0.261 -2.459,0.7 -3.955,1.32c1.364,-0.257 2.605,-0.444 3.72,-0.563c1.115,-0.118 2.225,-0.177 3.332,-0.175c0.565,0.005 1.39,0.031 2.473,0.074c-0.195,0.521 -0.343,0.996 -0.444,1.423c-0.102,0.427 -0.171,0.926 -0.207,1.497c-0.036,0.571 -0.053,1.333 -0.051,2.285l-0,11.776l0.037,2.214c-0,0.834 0.157,1.457 0.471,1.87c0.314,0.413 0.895,0.713 1.744,0.9l0,0.738l-10.779,0l-0,-0.738c0.984,-0.197 1.636,-0.579 1.956,-1.145c0.108,-0.183 0.179,-0.38 0.213,-0.591c0.034,-0.21 0.049,-0.555 0.046,-1.034l0.037,-2.214l0,-10.226c0.002,-0.927 -0.007,-1.615 -0.03,-2.064c-0.023,-0.449 -0.078,-0.779 -0.162,-0.99c-0.085,-0.211 -0.217,-0.423 -0.399,-0.637c-0.36,-0.433 -0.803,-0.777 -1.329,-1.034c-0.526,-0.257 -1.08,-0.38 -1.661,-0.369l-0.96,0.037l-0.295,-0.443c1.716,-1.373 3.562,-2.365 5.537,-2.977c1.975,-0.611 4.301,-0.911 6.977,-0.899c2.054,-0.004 3.871,0.197 5.449,0.604c1.579,0.407 2.999,1.042 4.26,1.906c1.02,0.691 1.803,1.441 2.348,2.252c0.545,0.81 0.821,1.635 0.827,2.473c-0.024,1.117 -0.438,2.15 -1.242,3.101c-0.804,0.95 -1.854,1.652 -3.151,2.104c-0.61,0.199 -1.329,0.355 -2.155,0.466c-0.827,0.112 -1.979,0.203 -3.456,0.273c1.942,0.395 3.567,1.062 4.872,2.002c1.306,0.94 2.377,2.217 3.212,3.83c0.451,0.858 0.868,1.468 1.251,1.832c0.382,0.364 0.789,0.541 1.223,0.531c0.137,0.002 0.305,-0.021 0.503,-0.069c0.197,-0.049 0.484,-0.137 0.863,-0.264" style="fill:#231f20;fill-rule:nonzero;"></path><path d="M114.376,51.064c-0.021,0.886 -0.297,1.624 -0.83,2.216c-0.533,0.592 -1.198,0.899 -1.995,0.921c-0.795,-0.022 -1.452,-0.329 -1.971,-0.921c-0.518,-0.592 -0.786,-1.33 -0.805,-2.216c0.019,-0.884 0.298,-1.614 0.835,-2.19c0.537,-0.576 1.216,-0.875 2.035,-0.895c0.753,0.024 1.39,0.328 1.913,0.914c0.523,0.587 0.795,1.311 0.818,2.171Zm-9.414,0c-0.02,0.886 -0.297,1.624 -0.83,2.216c-0.532,0.592 -1.197,0.899 -1.994,0.921c-0.795,-0.022 -1.452,-0.329 -1.971,-0.921c-0.518,-0.592 -0.787,-1.33 -0.806,-2.216c0.02,-0.884 0.298,-1.614 0.836,-2.19c0.537,-0.576 1.216,-0.875 2.035,-0.895c0.752,0.024 1.39,0.328 1.912,0.914c0.523,0.587 0.795,1.311 0.818,2.171Zm14.826,31.012l-9.366,0l-0,-4.916l-7.766,5.439c-5.398,-0.445 -8.112,-3.059 -8.143,-7.845c-0.022,-1.202 0.2,-2.314 0.665,-3.334c0.466,-1.019 1.312,-2.261 2.536,-3.725c0.673,-0.818 1.15,-1.497 1.429,-2.04c0.28,-0.543 0.415,-1.066 0.407,-1.569c0.038,-1.43 -1.076,-2.388 -3.342,-2.877l4.094,-3.974c1.095,0.711 1.882,1.433 2.36,2.164c0.477,0.731 0.711,1.596 0.7,2.595c0.015,0.485 -0.062,1.071 -0.229,1.759c-0.168,0.687 -0.515,1.861 -1.042,3.523c-0.327,1.03 -0.567,1.899 -0.718,2.608c-0.151,0.71 -0.226,1.357 -0.223,1.942c0.027,1.595 0.537,2.876 1.529,3.844c0.993,0.967 2.303,1.464 3.93,1.49c0.577,0.012 1.13,-0.064 1.659,-0.229c0.53,-0.164 1.248,-0.489 2.154,-0.974l-0,-9.622c0.045,-1.636 -0.139,-2.745 -0.553,-3.328c-0.414,-0.583 -1.328,-1.025 -2.742,-1.327c1.022,-1.024 2.379,-1.905 4.071,-2.641c1.693,-0.737 3.662,-1.303 5.908,-1.7l-0,18.566c-0.027,2.038 0.143,3.413 0.511,4.125c0.368,0.711 1.092,1.08 2.171,1.104l-0,0.942" style="fill:#231f20;"></path><path d="M167.462,69.054c0.008,1.583 -0.156,3.026 -0.494,4.329c-0.338,1.304 -0.903,2.596 -1.696,3.876c-0.793,1.28 -1.867,2.677 -3.223,4.19c-0.705,0.811 -1.25,1.454 -1.637,1.927c-0.386,0.472 -0.712,0.926 -0.978,1.357c-0.266,0.433 -0.571,0.994 -0.915,1.683l-2.259,0c-0.046,-0.432 -0.073,-0.756 -0.082,-0.973c-0.01,-0.217 -0.015,-0.398 -0.012,-0.543c-0.016,-0.811 0.144,-1.726 0.482,-2.746c0.338,-1.02 0.945,-2.458 1.824,-4.314c0.788,-1.658 1.341,-3.049 1.659,-4.171c0.318,-1.122 0.471,-2.225 0.459,-3.308c-0.026,-2.126 -0.527,-3.835 -1.506,-5.125c-0.978,-1.289 -2.281,-1.952 -3.907,-1.987c-0.568,-0.006 -1.114,0.085 -1.635,0.275c-0.522,0.189 -1.137,0.516 -1.848,0.98l-0,11.401c-0.021,2.038 0.116,3.413 0.412,4.125c0.296,0.711 0.881,1.08 1.754,1.104l-0,0.942l-11.391,0l-0,-0.942c1.033,0.054 1.721,-0.275 2.065,-0.987c0.345,-0.711 0.503,-2.125 0.477,-4.242l-0,-7.531c0.039,-3.417 -1.357,-5.107 -4.189,-5.072c-0.674,-0.003 -1.338,0.093 -1.995,0.287c-0.656,0.194 -1.356,0.499 -2.1,0.915l-0,11.401c-0.022,2.038 0.116,3.413 0.412,4.125c0.296,0.711 0.88,1.08 1.753,1.104l-0,0.942l-11.672,0l-0,-0.942c1.147,0.031 1.912,-0.304 2.294,-1.006c0.382,-0.701 0.559,-2.11 0.53,-4.223l-0,-9.047c0.008,-1.339 -0.045,-2.283 -0.159,-2.831c-0.115,-0.548 -0.345,-0.982 -0.689,-1.301c-0.232,-0.276 -0.567,-0.496 -1.006,-0.66c-0.438,-0.165 -1.138,-0.346 -2.1,-0.543c2.275,-1.996 5.82,-3.391 10.637,-4.184l-0,5.806l7.201,-5.753c4.213,0.349 6.802,2.266 7.766,5.753l6.684,-5.753c2.911,0.306 5.149,1.459 6.713,3.458c1.564,1.999 2.355,4.734 2.371,8.204" style="fill:#231f20;fill-rule:nonzero;"></path><path d="M198.61,68.322c-0.026,2.895 -0.703,5.446 -2.029,7.655c-1.327,2.208 -3.145,3.806 -5.454,4.792c-1.882,0.749 -4.236,1.133 -7.06,1.15l-1.224,0l0,4.446c-0.026,2.037 0.132,3.413 0.471,4.124c0.339,0.712 1.014,1.08 2.024,1.105l-0,0.941l-12.003,0l-0,-0.941c1.148,-0.025 1.913,-0.393 2.295,-1.105c0.383,-0.711 0.559,-2.087 0.53,-4.124l-0,-20.03c0.016,-1.165 -0.058,-2.049 -0.223,-2.654c-0.166,-0.604 -0.519,-1.055 -1.061,-1.352c-0.541,-0.297 -1.369,-0.565 -2.482,-0.806c1.071,-0.975 2.495,-1.823 4.271,-2.542c1.777,-0.721 3.836,-1.268 6.178,-1.642l0,4.968c0.256,-0.051 0.603,-0.248 1.042,-0.594c0.438,-0.346 1.267,-1.002 2.488,-1.968l3.436,-2.667c1.135,0.07 2.112,0.257 2.93,0.562c0.818,0.306 1.582,0.78 2.294,1.425c1.118,0.971 1.99,2.272 2.619,3.903c0.628,1.631 0.948,3.416 0.958,5.354Zm-6.683,3.033c-0.035,-2.535 -0.6,-4.603 -1.694,-6.203c-1.095,-1.601 -2.507,-2.427 -4.236,-2.478c-0.52,-0.008 -1.011,0.059 -1.471,0.202c-0.461,0.143 -1.022,0.407 -1.683,0.791l-0,16.892c1.453,-0.066 2.642,-0.246 3.571,-0.542c0.929,-0.295 1.778,-0.777 2.547,-1.445c0.969,-0.82 1.704,-1.846 2.207,-3.079c0.503,-1.232 0.756,-2.611 0.759,-4.138" style="fill:#231f20;"></path><path d="M230.521,72.872c-0.477,1.302 -0.975,2.372 -1.497,3.21c-0.522,0.838 -1.191,1.633 -2.007,2.386c-1.374,1.286 -2.915,2.269 -4.622,2.948c-1.708,0.678 -3.497,1.021 -5.367,1.026c-3.519,-0.063 -6.378,-1.139 -8.577,-3.229c-2.198,-2.09 -3.332,-4.814 -3.399,-8.172c0.035,-2.425 0.691,-4.67 1.964,-6.736c1.274,-2.067 2.951,-3.735 5.032,-5.005c2.081,-1.271 4.352,-1.924 6.81,-1.961c2.536,0.021 4.707,0.699 6.511,2.033c1.804,1.335 3.086,3.203 3.844,5.603c-2.432,1.646 -5.073,3.165 -7.923,4.557c-2.85,1.391 -5.596,2.504 -8.237,3.34c1.082,1.324 2.265,2.285 3.55,2.882c1.284,0.599 2.768,0.893 4.451,0.883c1.042,0.009 2.01,-0.096 2.908,-0.314c0.897,-0.217 1.859,-0.601 2.884,-1.15c1.025,-0.549 2.25,-1.316 3.675,-2.301Zm-9.1,-7.374c-0.961,-2.007 -1.837,-3.406 -2.628,-4.197c-0.791,-0.791 -1.693,-1.17 -2.706,-1.138c-1.359,0.04 -2.46,0.707 -3.301,2.001c-0.843,1.294 -1.276,2.981 -1.302,5.06c-0.012,0.767 0.052,1.441 0.19,2.02c0.138,0.578 0.424,1.317 0.856,2.216c2.279,-0.857 4.088,-1.733 5.426,-2.628c1.338,-0.896 2.493,-2.007 3.465,-3.334" style="fill:#231f20;"></path><path d="M262.529,77.776c-0.177,0.829 -0.377,1.489 -0.6,1.98c-0.223,0.492 -0.515,0.94 -0.877,1.343c-0.96,1.046 -2.177,1.575 -3.654,1.587c-1.458,-0.03 -2.677,-0.56 -3.655,-1.587c-0.531,-0.559 -0.946,-1.232 -1.246,-2.017c-0.3,-0.785 -0.512,-1.872 -0.637,-3.262c-0.135,-1.637 -0.557,-2.986 -1.264,-4.047c-0.708,-1.06 -1.664,-1.754 -2.87,-2.081l0,-0.443l0.369,0c1.591,-0.018 2.857,-0.443 3.798,-1.274c0.94,-0.83 1.422,-1.956 1.444,-3.377c-0.034,-1.909 -0.796,-3.425 -2.289,-4.55c-1.492,-1.125 -3.51,-1.7 -6.054,-1.726c-1.219,-0.008 -2.398,0.118 -3.539,0.378c-1.141,0.261 -2.459,0.7 -3.955,1.32c1.364,-0.257 2.604,-0.444 3.719,-0.563c1.116,-0.118 2.226,-0.177 3.332,-0.175c0.566,0.005 1.391,0.031 2.474,0.074c-0.195,0.521 -0.343,0.996 -0.445,1.423c-0.102,0.427 -0.17,0.926 -0.206,1.497c-0.036,0.571 -0.053,1.333 -0.051,2.285l0,11.776l0.037,2.214c0,0.834 0.156,1.457 0.47,1.87c0.315,0.413 0.896,0.713 1.745,0.9l-0,0.738l-10.779,0l-0,-0.738c0.984,-0.197 1.636,-0.579 1.956,-1.145c0.108,-0.183 0.179,-0.38 0.212,-0.591c0.034,-0.21 0.049,-0.555 0.047,-1.034l0.036,-2.214l0,-10.226c0.003,-0.927 -0.007,-1.615 -0.03,-2.064c-0.023,-0.449 -0.077,-0.779 -0.161,-0.99c-0.085,-0.211 -0.218,-0.423 -0.399,-0.637c-0.36,-0.433 -0.803,-0.777 -1.329,-1.034c-0.526,-0.257 -1.08,-0.38 -1.662,-0.369l-0.96,0.037l-0.295,-0.443c1.717,-1.373 3.563,-2.365 5.538,-2.977c1.975,-0.611 4.3,-0.911 6.977,-0.899c2.054,-0.004 3.87,0.197 5.449,0.604c1.579,0.407 2.999,1.042 4.26,1.906c1.02,0.691 1.803,1.441 2.348,2.252c0.545,0.81 0.821,1.635 0.827,2.473c-0.024,1.117 -0.438,2.15 -1.242,3.101c-0.804,0.95 -1.854,1.652 -3.151,2.104c-0.611,0.199 -1.329,0.355 -2.156,0.466c-0.826,0.112 -1.979,0.203 -3.456,0.273c1.943,0.395 3.567,1.062 4.873,2.002c1.306,0.94 2.376,2.217 3.212,3.83c0.451,0.858 0.868,1.468 1.25,1.832c0.383,0.364 0.79,0.541 1.223,0.531c0.138,0.002 0.305,-0.021 0.503,-0.069c0.198,-0.049 0.485,-0.137 0.863,-0.264" style="fill:#231f20;fill-rule:nonzero;"></path><path d="M311.174,69.159c-0.018,2.719 -0.768,5.386 -2.25,8.001c-0.366,0.655 -0.697,1.204 -0.989,1.648c-0.293,0.444 -0.755,1.036 -1.385,1.777c-0.63,0.74 -1.634,1.882 -3.012,3.426c-1.795,2.005 -2.702,3.8 -2.72,5.387c0.009,0.261 0.044,0.627 0.105,1.098l-0.68,0c-0.514,-1.325 -0.872,-2.389 -1.072,-3.19c-0.2,-0.802 -0.296,-1.552 -0.287,-2.249c-0.01,-0.783 0.179,-1.74 0.568,-2.87c0.389,-1.13 1.037,-2.596 1.942,-4.399c0.821,-1.65 1.388,-3.006 1.699,-4.066c0.312,-1.062 0.46,-2.129 0.445,-3.203c-0.028,-2.23 -0.625,-4.008 -1.791,-5.335c-1.166,-1.327 -2.731,-2.007 -4.694,-2.039c-0.499,-0.004 -0.965,0.043 -1.398,0.143c-0.434,0.101 -0.979,0.279 -1.635,0.536l-0,12.081c-0.025,2.038 0.129,3.413 0.464,4.125c0.334,0.711 0.999,1.08 1.994,1.104l-0,0.942l-12.812,0l-0,-0.942c1.173,-0.024 1.963,-0.393 2.365,-1.104c0.403,-0.712 0.591,-2.087 0.563,-4.125l-0,-20.03c0.005,-0.932 -0.019,-1.63 -0.073,-2.092c-0.052,-0.462 -0.168,-0.897 -0.346,-1.307c-0.213,-0.626 -0.571,-1.075 -1.071,-1.347c-0.502,-0.272 -1.435,-0.538 -2.798,-0.797c1.432,-1.217 3.078,-2.143 4.935,-2.778c1.857,-0.636 4.117,-1.052 6.779,-1.249l-0,15.898l7.217,-4.811c1.357,0.274 2.461,0.576 3.314,0.909c0.853,0.332 1.631,0.779 2.334,1.339c1.346,1.051 2.394,2.415 3.145,4.093c0.75,1.678 1.131,3.486 1.144,5.426" style="fill:#231f20;fill-rule:nonzero;"></path><path d="M342.544,69.682c-0.022,2.462 -0.576,4.65 -1.661,6.562c-1.086,1.912 -2.57,3.418 -4.451,4.517c-1.882,1.099 -4.029,1.659 -6.438,1.681c-2.257,-0.024 -4.288,-0.552 -6.094,-1.585c-1.806,-1.032 -3.241,-2.428 -4.304,-4.187c-1.063,-1.759 -1.607,-3.74 -1.631,-5.942c0.015,-2.428 0.678,-4.62 1.987,-6.577c1.31,-1.957 3.175,-3.547 5.596,-4.772c-0.692,1.494 -1.164,2.716 -1.418,3.667c-0.255,0.951 -0.374,1.926 -0.36,2.923c0.056,2.911 0.898,5.298 2.53,7.158c1.631,1.86 3.716,2.821 6.256,2.883c2.121,-0.05 3.893,-0.748 5.314,-2.093c1.422,-1.344 2.161,-3.034 2.216,-5.072c-0.041,-1.794 -0.625,-3.279 -1.751,-4.452c-1.127,-1.173 -2.547,-1.782 -4.262,-1.824c-1.15,0.018 -2.093,0.269 -2.832,0.752c-0.737,0.483 -1.118,1.086 -1.143,1.811c-0,0.959 0.523,1.708 1.569,2.248c-0.433,0.078 -0.782,0.133 -1.046,0.164c-0.264,0.032 -0.508,0.047 -0.732,0.046c-1.436,-0.025 -2.591,-0.472 -3.465,-1.34c-0.874,-0.869 -1.323,-2.008 -1.347,-3.419c0.038,-1.679 0.669,-3.041 1.896,-4.086c1.227,-1.045 2.827,-1.583 4.799,-1.615c1.993,0.029 3.799,0.606 5.418,1.732c1.621,1.127 2.911,2.633 3.875,4.521c0.963,1.887 1.456,3.987 1.479,6.299" style="fill:#231f20;fill-rule:nonzero;"></path><path d="M374.739,67.859l-0.753,0.197c-1.257,-2.825 -3.14,-4.988 -5.648,-6.485c-2.509,-1.496 -5.41,-2.206 -8.705,-2.128l-0,15.75c0.738,-1.049 1.367,-1.99 1.888,-2.824c0.522,-0.833 1.162,-1.91 1.922,-3.23c0.449,-0.216 0.846,-0.362 1.19,-0.436c0.345,-0.075 0.73,-0.111 1.157,-0.105c1.089,-0.015 1.991,0.235 2.708,0.75c0.717,0.515 1.366,1.38 1.944,2.597l-3.854,5.71c-0.62,-2.273 -1.683,-3.389 -3.19,-3.348c-0.472,-0.035 -0.933,0.086 -1.384,0.363c-0.451,0.278 -1.244,0.928 -2.381,1.951l-0,8.761c-0.001,1.124 0.001,1.938 0.005,2.441c0.004,0.503 0.015,0.839 0.034,1.008c0.019,0.169 0.05,0.316 0.094,0.439c0.1,0.28 0.287,0.521 0.559,0.72c0.273,0.2 0.559,0.305 0.859,0.314c0.14,-0.008 0.346,-0.041 0.619,-0.098l0.222,0.394l-12.758,8.17c0.58,-1.019 1.015,-1.885 1.307,-2.596c0.291,-0.712 0.55,-1.504 0.775,-2.375c0.219,-0.836 0.382,-1.604 0.491,-2.304c0.108,-0.701 0.18,-1.538 0.214,-2.513c0.036,-0.974 0.051,-2.289 0.048,-3.945l-0,-19.441c-0.014,-1.928 -0.029,-3.093 -0.044,-3.495c0.009,-0.876 -0.197,-1.561 -0.615,-2.056c-0.418,-0.494 -1.099,-0.859 -2.043,-1.095l-0,-0.984l17.188,0c1.429,0.006 2.504,-0.012 3.224,-0.057c0.72,-0.044 1.283,-0.154 1.688,-0.329c0.405,-0.176 0.85,-0.458 1.334,-0.845l1.905,11.124" style="fill:#231f20;fill-rule:nonzero;"></path><path d="M24.364,72.955c-0.026,1.531 -0.582,2.915 -1.668,4.152c-1.087,1.237 -2.55,2.222 -4.392,2.955c-1.841,0.732 -3.907,1.107 -6.196,1.125c-1.662,0 -3.618,-0.222 -5.87,-0.665c-0.745,-0.145 -1.303,-0.242 -1.67,-0.295c-0.368,-0.052 -0.722,-0.077 -1.061,-0.074c-0.652,-0.003 -1.25,0.068 -1.795,0.212c-0.546,0.145 -1.116,0.382 -1.712,0.711c0.447,-2.319 1.139,-4.214 2.076,-5.685c0.937,-1.47 2.201,-2.664 3.793,-3.581c-0.234,0.572 -0.393,1.033 -0.475,1.385c-0.082,0.35 -0.121,0.701 -0.115,1.052c0.02,0.978 0.336,1.905 0.95,2.782c0.613,0.877 1.403,1.594 2.369,2.15c0.967,0.557 1.989,0.845 3.067,0.864c1.512,-0.034 2.761,-0.521 3.747,-1.463c0.986,-0.942 1.497,-2.141 1.532,-3.595c-0.018,-1.662 -0.646,-2.953 -1.883,-3.876c-0.527,-0.397 -1.199,-0.729 -2.016,-0.997c-0.818,-0.267 -1.942,-0.526 -3.374,-0.775c-2.097,-0.372 -3.707,-0.773 -4.826,-1.205c-1.12,-0.431 -2.009,-0.989 -2.667,-1.674c-0.464,-0.469 -0.82,-0.981 -1.066,-1.533c-0.247,-0.552 -0.371,-1.099 -0.374,-1.642c0.024,-1.283 0.518,-2.446 1.482,-3.49c0.965,-1.043 2.257,-1.875 3.877,-2.496c1.621,-0.621 3.428,-0.939 5.42,-0.954c1.502,0 3.077,0.184 4.726,0.553c0.911,0.214 1.552,0.35 1.924,0.407c0.371,0.057 0.763,0.081 1.177,0.073c0.693,0.005 1.337,-0.07 1.933,-0.226c0.596,-0.156 1.305,-0.425 2.128,-0.807c-0.269,1.021 -0.527,1.831 -0.776,2.431c-0.249,0.601 -0.544,1.181 -0.886,1.74c-0.36,0.58 -0.757,1.036 -1.19,1.37c-0.434,0.335 -0.849,0.505 -1.246,0.513c-0.733,0.03 -1.926,-0.843 -3.581,-2.621c-0.752,-0.819 -1.418,-1.396 -1.998,-1.731c-0.581,-0.334 -1.219,-0.496 -1.916,-0.484c-1.043,0.024 -1.918,0.354 -2.625,0.987c-0.707,0.634 -1.074,1.424 -1.103,2.372c0.006,0.563 0.16,1.089 0.461,1.578c0.302,0.489 0.714,0.886 1.237,1.191c0.312,0.19 0.633,0.35 0.961,0.48c0.33,0.129 0.792,0.264 1.388,0.405c0.596,0.143 1.45,0.327 2.561,0.554c1.566,0.325 2.864,0.673 3.895,1.044c1.03,0.37 1.922,0.81 2.676,1.319c0.969,0.661 1.726,1.47 2.271,2.427c0.544,0.957 0.821,1.969 0.83,3.037" style="fill:#fff;fill-rule:nonzero;"></path><path d="M54.843,55.419l-1.255,8.38l-0.812,0c-0.562,-1.875 -1.432,-3.302 -2.608,-4.282c-1.175,-0.979 -2.718,-1.558 -4.627,-1.734l-0,17.571l0.036,2.215c0,0.852 0.157,1.484 0.471,1.897c0.314,0.412 0.895,0.703 1.744,0.872l0,0.738l-10.779,0l0,-0.738c0.984,-0.197 1.636,-0.578 1.956,-1.144c0.108,-0.183 0.179,-0.381 0.213,-0.591c0.033,-0.211 0.049,-0.556 0.046,-1.034l0.036,-2.215l0,-17.498c-1.983,0.079 -3.627,0.65 -4.932,1.712c-1.306,1.062 -2.11,2.473 -2.414,4.231l-0.849,0l-1.181,-8.38l0.443,0c0.443,0.304 0.857,0.53 1.243,0.679c0.386,0.149 0.89,0.246 1.513,0.293c0.624,0.046 1.514,0.066 2.671,0.062l12.034,0c1.414,0.004 2.52,-0.02 3.315,-0.071c0.797,-0.051 1.437,-0.151 1.922,-0.301c0.484,-0.149 0.966,-0.37 1.445,-0.662l0.369,0" style="fill:#fff;fill-rule:nonzero;"></path><path d="M86.958,76.777c-0.176,0.828 -0.376,1.488 -0.599,1.979c-0.223,0.492 -0.516,0.939 -0.878,1.343c-0.959,1.046 -2.177,1.575 -3.654,1.587c-1.458,-0.03 -2.676,-0.56 -3.655,-1.587c-0.53,-0.559 -0.946,-1.232 -1.246,-2.017c-0.3,-0.785 -0.512,-1.872 -0.636,-3.262c-0.136,-1.637 -0.557,-2.986 -1.265,-4.047c-0.707,-1.06 -1.664,-1.754 -2.87,-2.081l-0,-0.443l0.369,0c1.591,-0.018 2.857,-0.443 3.798,-1.274c0.94,-0.83 1.422,-1.956 1.444,-3.377c-0.034,-1.909 -0.796,-3.426 -2.288,-4.55c-1.493,-1.125 -3.51,-1.7 -6.055,-1.726c-1.219,-0.008 -2.398,0.119 -3.539,0.378c-1.141,0.26 -2.459,0.7 -3.954,1.32c1.363,-0.257 2.603,-0.445 3.719,-0.563c1.115,-0.118 2.225,-0.177 3.331,-0.175c0.566,0.006 1.391,0.03 2.474,0.074c-0.195,0.521 -0.343,0.996 -0.445,1.423c-0.102,0.427 -0.17,0.926 -0.206,1.497c-0.036,0.571 -0.053,1.333 -0.051,2.285l-0,11.776l0.037,2.215c-0,0.833 0.157,1.456 0.471,1.869c0.314,0.413 0.895,0.713 1.744,0.9l-0,0.738l-10.779,0l-0,-0.738c0.984,-0.198 1.636,-0.579 1.956,-1.145c0.108,-0.183 0.179,-0.38 0.213,-0.591c0.034,-0.21 0.049,-0.555 0.046,-1.033l0.036,-2.215l-0,-10.226c0.003,-0.927 -0.006,-1.615 -0.03,-2.064c-0.023,-0.449 -0.077,-0.779 -0.161,-0.99c-0.085,-0.211 -0.217,-0.423 -0.399,-0.637c-0.36,-0.432 -0.803,-0.777 -1.329,-1.034c-0.526,-0.257 -1.08,-0.38 -1.661,-0.369l-0.96,0.037l-0.295,-0.443c1.716,-1.373 3.562,-2.365 5.537,-2.977c1.975,-0.611 4.301,-0.911 6.977,-0.899c2.054,-0.004 3.871,0.197 5.45,0.604c1.578,0.407 2.999,1.042 4.259,1.906c1.02,0.69 1.803,1.441 2.348,2.252c0.546,0.811 0.821,1.635 0.827,2.473c-0.024,1.117 -0.438,2.15 -1.242,3.101c-0.803,0.95 -1.854,1.652 -3.151,2.104c-0.61,0.199 -1.329,0.355 -2.156,0.466c-0.826,0.112 -1.978,0.203 -3.455,0.272c1.942,0.396 3.567,1.063 4.872,2.003c1.306,0.94 2.377,2.216 3.212,3.83c0.451,0.858 0.868,1.468 1.251,1.832c0.382,0.364 0.789,0.541 1.222,0.531c0.138,0.002 0.306,-0.021 0.503,-0.069c0.198,-0.049 0.485,-0.137 0.863,-0.263" style="fill:#fff;fill-rule:nonzero;"></path><path d="M113.376,50.064c-0.021,0.886 -0.297,1.625 -0.83,2.216c-0.533,0.592 -1.198,0.899 -1.995,0.921c-0.795,-0.022 -1.452,-0.329 -1.971,-0.921c-0.518,-0.591 -0.787,-1.33 -0.805,-2.216c0.019,-0.884 0.298,-1.614 0.835,-2.19c0.537,-0.576 1.216,-0.875 2.035,-0.895c0.753,0.024 1.39,0.328 1.913,0.914c0.522,0.587 0.795,1.31 0.818,2.171Zm-9.414,0c-0.02,0.886 -0.297,1.625 -0.83,2.216c-0.532,0.592 -1.197,0.899 -1.994,0.921c-0.795,-0.022 -1.452,-0.329 -1.971,-0.921c-0.518,-0.591 -0.787,-1.33 -0.806,-2.216c0.02,-0.884 0.298,-1.614 0.836,-2.19c0.537,-0.576 1.215,-0.875 2.035,-0.895c0.752,0.024 1.39,0.328 1.913,0.914c0.522,0.587 0.794,1.31 0.817,2.171Zm14.826,31.012l-9.366,0l-0,-4.916l-7.766,5.439c-5.398,-0.445 -8.112,-3.059 -8.143,-7.845c-0.022,-1.202 0.2,-2.314 0.665,-3.334c0.466,-1.019 1.311,-2.261 2.536,-3.725c0.673,-0.817 1.15,-1.497 1.429,-2.04c0.28,-0.543 0.415,-1.066 0.406,-1.569c0.039,-1.43 -1.075,-2.388 -3.341,-2.876l4.094,-3.975c1.095,0.711 1.882,1.433 2.36,2.164c0.477,0.731 0.711,1.596 0.7,2.595c0.015,0.485 -0.062,1.071 -0.229,1.758c-0.169,0.688 -0.515,1.862 -1.042,3.524c-0.327,1.03 -0.567,1.899 -0.718,2.608c-0.151,0.71 -0.226,1.357 -0.223,1.942c0.027,1.595 0.537,2.876 1.53,3.844c0.992,0.967 2.302,1.464 3.929,1.49c0.577,0.012 1.13,-0.064 1.659,-0.229c0.53,-0.164 1.248,-0.489 2.154,-0.974l-0,-9.622c0.045,-1.636 -0.139,-2.745 -0.553,-3.328c-0.414,-0.583 -1.328,-1.025 -2.742,-1.327c1.022,-1.024 2.379,-1.905 4.072,-2.641c1.692,-0.737 3.661,-1.303 5.907,-1.7l-0,18.566c-0.027,2.038 0.143,3.413 0.511,4.125c0.368,0.711 1.092,1.08 2.171,1.104l-0,0.942" style="fill:#fff;"></path><path d="M166.462,68.055c0.008,1.582 -0.156,3.025 -0.493,4.328c-0.339,1.304 -0.904,2.596 -1.697,3.876c-0.793,1.28 -1.867,2.677 -3.223,4.19c-0.705,0.811 -1.25,1.454 -1.637,1.927c-0.386,0.472 -0.712,0.926 -0.978,1.357c-0.266,0.433 -0.571,0.994 -0.915,1.683l-2.259,0c-0.046,-0.432 -0.073,-0.756 -0.082,-0.973c-0.01,-0.217 -0.015,-0.398 -0.012,-0.543c-0.016,-0.811 0.145,-1.726 0.482,-2.746c0.338,-1.02 0.945,-2.458 1.824,-4.314c0.788,-1.658 1.341,-3.049 1.659,-4.171c0.318,-1.122 0.471,-2.225 0.459,-3.307c-0.025,-2.127 -0.527,-3.835 -1.506,-5.126c-0.979,-1.289 -2.281,-1.952 -3.907,-1.987c-0.568,-0.006 -1.114,0.085 -1.635,0.274c-0.522,0.191 -1.137,0.517 -1.848,0.981l-0,11.401c-0.021,2.038 0.116,3.413 0.412,4.125c0.296,0.711 0.881,1.08 1.754,1.104l-0,0.942l-11.391,0l-0,-0.942c1.033,0.054 1.721,-0.275 2.065,-0.987c0.345,-0.711 0.503,-2.125 0.477,-4.242l-0,-7.53c0.039,-3.418 -1.357,-5.108 -4.19,-5.073c-0.673,-0.003 -1.337,0.093 -1.994,0.287c-0.656,0.194 -1.356,0.499 -2.1,0.915l-0,11.401c-0.021,2.038 0.116,3.413 0.412,4.125c0.296,0.711 0.88,1.08 1.753,1.104l-0,0.942l-11.672,0l-0,-0.942c1.147,0.032 1.912,-0.304 2.294,-1.006c0.383,-0.701 0.559,-2.11 0.53,-4.223l-0,-9.048c0.008,-1.339 -0.045,-2.282 -0.159,-2.83c-0.115,-0.548 -0.345,-0.981 -0.689,-1.301c-0.232,-0.276 -0.567,-0.496 -1.006,-0.66c-0.438,-0.165 -1.138,-0.346 -2.1,-0.543c2.275,-1.996 5.82,-3.391 10.637,-4.184l-0,5.806l7.201,-5.753c4.213,0.349 6.802,2.266 7.766,5.753l6.684,-5.753c2.911,0.306 5.149,1.459 6.713,3.458c1.564,1.999 2.355,4.734 2.371,8.205" style="fill:#fff;fill-rule:nonzero;"></path><path d="M197.61,67.322c-0.026,2.895 -0.703,5.446 -2.029,7.655c-1.327,2.208 -3.145,3.806 -5.454,4.792c-1.882,0.749 -4.236,1.133 -7.06,1.15l-1.224,0l0,4.446c-0.026,2.037 0.132,3.413 0.471,4.124c0.339,0.712 1.014,1.08 2.024,1.106l-0,0.94l-12.003,0l-0,-0.94c1.148,-0.026 1.913,-0.394 2.295,-1.106c0.383,-0.711 0.559,-2.087 0.53,-4.124l-0,-20.03c0.016,-1.165 -0.058,-2.049 -0.224,-2.654c-0.165,-0.604 -0.518,-1.055 -1.06,-1.352c-0.541,-0.297 -1.368,-0.565 -2.481,-0.806c1.07,-0.975 2.494,-1.823 4.271,-2.542c1.776,-0.721 3.835,-1.267 6.177,-1.642l0,4.969c0.256,-0.052 0.603,-0.25 1.042,-0.595c0.438,-0.346 1.267,-1.002 2.488,-1.968l3.436,-2.667c1.135,0.07 2.112,0.257 2.93,0.562c0.818,0.306 1.582,0.78 2.294,1.425c1.118,0.971 1.99,2.272 2.619,3.903c0.628,1.631 0.948,3.416 0.958,5.354Zm-6.683,3.033c-0.035,-2.535 -0.6,-4.603 -1.694,-6.204c-1.095,-1.6 -2.507,-2.426 -4.236,-2.477c-0.52,-0.008 -1.011,0.059 -1.471,0.202c-0.461,0.143 -1.022,0.407 -1.683,0.791l-0,16.892c1.453,-0.066 2.643,-0.247 3.571,-0.542c0.929,-0.295 1.778,-0.777 2.547,-1.445c0.969,-0.82 1.704,-1.846 2.207,-3.078c0.503,-1.234 0.756,-2.612 0.759,-4.139" style="fill:#fff;"></path><path d="M229.521,71.872c-0.476,1.301 -0.975,2.372 -1.497,3.21c-0.522,0.837 -1.192,1.633 -2.007,2.385c-1.374,1.287 -2.915,2.27 -4.622,2.949c-1.708,0.678 -3.497,1.021 -5.367,1.026c-3.52,-0.063 -6.378,-1.139 -8.577,-3.229c-2.199,-2.09 -3.332,-4.814 -3.4,-8.171c0.036,-2.426 0.691,-4.671 1.965,-6.737c1.274,-2.067 2.951,-3.735 5.032,-5.005c2.081,-1.27 4.352,-1.924 6.81,-1.961c2.536,0.021 4.707,0.699 6.511,2.033c1.804,1.335 3.086,3.203 3.844,5.603c-2.431,1.646 -5.073,3.165 -7.923,4.557c-2.85,1.391 -5.596,2.504 -8.237,3.34c1.082,1.324 2.265,2.285 3.55,2.882c1.284,0.599 2.768,0.893 4.451,0.883c1.042,0.009 2.01,-0.096 2.908,-0.314c0.897,-0.218 1.859,-0.601 2.884,-1.15c1.026,-0.549 2.25,-1.316 3.675,-2.301Zm-9.1,-7.374c-0.961,-2.007 -1.837,-3.406 -2.628,-4.197c-0.791,-0.791 -1.693,-1.171 -2.706,-1.138c-1.359,0.04 -2.459,0.706 -3.301,2.001c-0.843,1.294 -1.277,2.981 -1.302,5.06c-0.012,0.768 0.052,1.441 0.19,2.019c0.138,0.579 0.424,1.318 0.856,2.217c2.279,-0.857 4.088,-1.733 5.426,-2.628c1.338,-0.896 2.493,-2.007 3.465,-3.334" style="fill:#fff;"></path><path d="M261.529,76.777c-0.177,0.828 -0.377,1.488 -0.6,1.979c-0.223,0.492 -0.515,0.939 -0.877,1.343c-0.959,1.046 -2.177,1.575 -3.654,1.587c-1.459,-0.03 -2.677,-0.56 -3.655,-1.587c-0.53,-0.559 -0.946,-1.232 -1.246,-2.017c-0.3,-0.785 -0.512,-1.872 -0.636,-3.262c-0.136,-1.637 -0.557,-2.986 -1.265,-4.047c-0.708,-1.06 -1.664,-1.754 -2.87,-2.081l0,-0.443l0.369,0c1.591,-0.018 2.857,-0.443 3.797,-1.274c0.941,-0.83 1.423,-1.956 1.445,-3.377c-0.034,-1.909 -0.796,-3.426 -2.289,-4.55c-1.492,-1.125 -3.51,-1.7 -6.054,-1.726c-1.219,-0.008 -2.398,0.119 -3.539,0.378c-1.141,0.26 -2.459,0.7 -3.955,1.32c1.364,-0.257 2.604,-0.445 3.72,-0.563c1.115,-0.118 2.225,-0.177 3.331,-0.175c0.566,0.006 1.391,0.03 2.474,0.074c-0.195,0.521 -0.343,0.996 -0.445,1.423c-0.102,0.427 -0.17,0.926 -0.207,1.497c-0.035,0.571 -0.053,1.333 -0.05,2.285l0,11.776l0.037,2.215c0,0.833 0.157,1.456 0.47,1.869c0.315,0.413 0.896,0.713 1.745,0.9l0,0.738l-10.779,0l0,-0.738c0.984,-0.198 1.636,-0.579 1.956,-1.145c0.108,-0.183 0.179,-0.38 0.212,-0.591c0.034,-0.21 0.049,-0.555 0.047,-1.033l0.036,-2.215l0,-10.226c0.003,-0.927 -0.006,-1.615 -0.03,-2.064c-0.023,-0.449 -0.077,-0.779 -0.161,-0.99c-0.085,-0.211 -0.218,-0.423 -0.399,-0.637c-0.36,-0.432 -0.803,-0.777 -1.329,-1.034c-0.527,-0.257 -1.08,-0.38 -1.661,-0.369l-0.96,0.037l-0.296,-0.443c1.717,-1.373 3.563,-2.365 5.537,-2.977c1.976,-0.611 4.301,-0.911 6.978,-0.899c2.054,-0.004 3.87,0.197 5.449,0.604c1.579,0.407 2.999,1.042 4.26,1.906c1.02,0.69 1.803,1.441 2.348,2.252c0.545,0.811 0.821,1.635 0.827,2.473c-0.025,1.117 -0.438,2.15 -1.242,3.101c-0.804,0.95 -1.854,1.652 -3.152,2.104c-0.61,0.199 -1.328,0.355 -2.155,0.466c-0.826,0.112 -1.978,0.203 -3.455,0.272c1.942,0.396 3.566,1.063 4.872,2.003c1.306,0.94 2.377,2.216 3.212,3.83c0.451,0.858 0.868,1.468 1.25,1.832c0.383,0.364 0.79,0.541 1.223,0.531c0.138,0.002 0.306,-0.021 0.503,-0.069c0.198,-0.049 0.485,-0.137 0.863,-0.263" style="fill:#fff;fill-rule:nonzero;"></path><path d="M310.174,68.159c-0.018,2.719 -0.768,5.386 -2.25,8.001c-0.366,0.655 -0.696,1.205 -0.989,1.648c-0.293,0.444 -0.755,1.036 -1.385,1.777c-0.63,0.74 -1.634,1.882 -3.012,3.426c-1.796,2.005 -2.702,3.8 -2.72,5.387c0.009,0.261 0.044,0.627 0.105,1.098l-0.68,0c-0.514,-1.325 -0.872,-2.389 -1.072,-3.19c-0.2,-0.802 -0.296,-1.552 -0.287,-2.249c-0.011,-0.783 0.18,-1.74 0.568,-2.87c0.39,-1.13 1.037,-2.596 1.941,-4.399c0.823,-1.65 1.389,-3.006 1.7,-4.066c0.312,-1.061 0.46,-2.129 0.445,-3.203c-0.028,-2.23 -0.625,-4.008 -1.791,-5.335c-1.166,-1.327 -2.731,-2.007 -4.694,-2.039c-0.499,-0.004 -0.965,0.044 -1.398,0.143c-0.435,0.101 -0.979,0.28 -1.635,0.536l0,12.081c-0.025,2.038 0.129,3.413 0.464,4.125c0.334,0.711 0.999,1.08 1.994,1.104l0,0.942l-12.812,0l0,-0.942c1.173,-0.024 1.963,-0.393 2.366,-1.104c0.402,-0.712 0.59,-2.087 0.562,-4.125l0,-20.03c0.005,-0.932 -0.019,-1.63 -0.073,-2.092c-0.052,-0.462 -0.168,-0.898 -0.346,-1.307c-0.213,-0.625 -0.57,-1.075 -1.072,-1.347c-0.501,-0.272 -1.433,-0.538 -2.797,-0.797c1.432,-1.217 3.078,-2.143 4.935,-2.779c1.857,-0.635 4.117,-1.051 6.779,-1.248l0,15.898l7.217,-4.811c1.357,0.274 2.461,0.576 3.314,0.909c0.853,0.332 1.631,0.779 2.334,1.34c1.346,1.05 2.394,2.414 3.144,4.092c0.751,1.678 1.132,3.486 1.145,5.426" style="fill:#fff;fill-rule:nonzero;"></path><path d="M341.545,68.682c-0.023,2.462 -0.577,4.649 -1.662,6.562c-1.086,1.912 -2.57,3.418 -4.451,4.517c-1.882,1.099 -4.028,1.659 -6.438,1.681c-2.257,-0.024 -4.288,-0.552 -6.094,-1.584c-1.807,-1.033 -3.241,-2.429 -4.304,-4.188c-1.063,-1.759 -1.607,-3.74 -1.631,-5.942c0.015,-2.428 0.678,-4.62 1.987,-6.577c1.31,-1.957 3.175,-3.547 5.596,-4.772c-0.692,1.494 -1.164,2.716 -1.418,3.667c-0.255,0.952 -0.374,1.926 -0.36,2.923c0.056,2.912 0.899,5.298 2.53,7.158c1.631,1.86 3.716,2.82 6.256,2.883c2.121,-0.051 3.892,-0.748 5.314,-2.093c1.423,-1.343 2.162,-3.034 2.216,-5.072c-0.041,-1.794 -0.625,-3.279 -1.751,-4.452c-1.127,-1.173 -2.547,-1.781 -4.262,-1.824c-1.15,0.019 -2.093,0.269 -2.832,0.752c-0.737,0.483 -1.118,1.086 -1.143,1.811c-0,0.959 0.523,1.708 1.569,2.248c-0.433,0.078 -0.782,0.133 -1.046,0.164c-0.264,0.032 -0.508,0.047 -0.732,0.046c-1.436,-0.025 -2.591,-0.472 -3.465,-1.341c-0.874,-0.868 -1.323,-2.007 -1.347,-3.418c0.038,-1.679 0.67,-3.041 1.896,-4.086c1.227,-1.045 2.826,-1.583 4.798,-1.615c1.994,0.029 3.8,0.606 5.419,1.732c1.62,1.126 2.912,2.633 3.875,4.521c0.963,1.887 1.456,3.987 1.48,6.299" style="fill:#fff;fill-rule:nonzero;"></path><path d="M373.739,66.859l-0.753,0.197c-1.257,-2.825 -3.14,-4.988 -5.648,-6.485c-2.509,-1.496 -5.41,-2.206 -8.705,-2.128l-0,15.75c0.738,-1.049 1.367,-1.99 1.888,-2.824c0.522,-0.833 1.162,-1.91 1.922,-3.23c0.449,-0.216 0.846,-0.362 1.19,-0.436c0.345,-0.076 0.73,-0.111 1.157,-0.106c1.089,-0.014 1.991,0.236 2.708,0.751c0.717,0.515 1.366,1.38 1.944,2.597l-3.854,5.709c-0.62,-2.272 -1.683,-3.387 -3.19,-3.347c-0.472,-0.035 -0.933,0.086 -1.384,0.363c-0.451,0.278 -1.244,0.928 -2.381,1.951l-0,8.761c-0.001,1.124 0.001,1.939 0.005,2.441c0.004,0.503 0.015,0.839 0.034,1.008c0.019,0.17 0.05,0.316 0.094,0.439c0.1,0.28 0.287,0.521 0.559,0.721c0.273,0.199 0.558,0.304 0.859,0.313c0.14,-0.008 0.347,-0.041 0.619,-0.098l0.222,0.394l-12.758,8.17c0.58,-1.019 1.015,-1.885 1.307,-2.596c0.292,-0.712 0.55,-1.504 0.775,-2.375c0.219,-0.836 0.382,-1.603 0.491,-2.304c0.108,-0.701 0.18,-1.538 0.215,-2.513c0.035,-0.974 0.05,-2.289 0.048,-3.945l0,-19.441c-0.015,-1.928 -0.03,-3.093 -0.045,-3.495c0.009,-0.876 -0.197,-1.562 -0.615,-2.056c-0.418,-0.494 -1.099,-0.859 -2.043,-1.095l0,-0.984l17.188,0c1.429,0.006 2.504,-0.012 3.224,-0.057c0.72,-0.044 1.283,-0.154 1.688,-0.329c0.405,-0.176 0.85,-0.458 1.334,-0.844l1.905,11.123" style="fill:#fff;fill-rule:nonzero;"></path></g><path d="M391.883,132.45l-0,-47.362c-0,-0 -0.302,-28.746 8.075,-33.955c8.376,-5.208 22.261,-13.793 22.261,-21.124l-0,-9.26l6.641,-0c-0,-0 0.075,-19.196 11.62,-19.196c11.547,-0 11.621,19.196 11.621,19.196l6.641,-0l-0,9.26c-0,7.331 13.885,15.916 22.261,21.124c8.377,5.209 8.075,33.955 8.075,33.955l-0,47.362l-97.195,-0" style="fill:#fff;fill-rule:nonzero;"></path><path d="M437.186,19.065l-0,16.139l6.589,-0l0,-16.139l-6.589,-0Z" style="fill:none;stroke:#231f20;stroke-width:0.78px;"></path><path d="M426.413,132.056l-0,-50.813l26.793,-0l-0,50.813l-26.793,-0Zm1.668,-39.869l-0,-9.221l4.687,0l-0,9.221l-4.687,-0Zm6.091,-0l-0,-9.221l4.687,0l-0,9.221l-4.687,-0Zm6.589,-0l-0,-9.221l4.687,0l-0,9.221l-4.687,-0Zm6.09,-0l-0,-9.221l4.687,0l-0,9.221l-4.687,-0Zm-18.77,10.796l-0,-9.221l4.687,0l-0,9.221l-4.687,-0Zm6.091,-0l-0,-9.221l4.687,0l-0,9.221l-4.687,-0Zm6.589,-0l-0,-9.221l4.687,0l-0,9.221l-4.687,-0Zm6.09,-0l-0,-9.221l4.687,0l-0,9.221l-4.687,-0Zm-18.77,12.561l-0,-9.221l4.687,0l-0,9.221l-4.687,-0Zm6.091,-0l-0,-9.221l4.687,0l-0,9.221l-4.687,-0Zm6.589,-0l-0,-9.221l4.687,0l-0,9.221l-4.687,-0Zm6.09,-0l-0,-9.221l4.687,0l-0,9.221l-4.687,-0Zm-18.77,10.61l-0,-9.221l4.687,0l-0,9.221l-4.687,-0Zm6.091,-0l-0,-9.221l4.687,0l-0,9.221l-4.687,-0Zm6.589,-0l-0,-9.221l4.687,0l-0,9.221l-4.687,-0Zm6.09,-0l-0,-9.221l4.687,0l-0,9.221l-4.687,-0Zm-0,-9.22l-0,-0l-0,-0Z" style="fill:none;fill-rule:nonzero;stroke:#231f20;stroke-width:0.55px;stroke-linecap:round;"></path><path d="M426.464,132.056l-0,-2.77l26.692,0l-0,2.77l-26.692,-0Zm-0,-2.77l-0,-0.001l-0.001,-0l-0,0.001l0.001,-0Z" style="fill:#231f20;fill-rule:nonzero;"></path><path d="M426.464,132.056l-0,-2.77l26.692,0l-0,2.77l-26.692,-0Zm-0,-2.77l-0,-0l-0,-0Z" style="fill:none;fill-rule:nonzero;stroke:#231f20;stroke-width:0.55px;stroke-linecap:round;"></path><path d="M428.283,104.59c-0,-0.401 0.325,-0.726 0.726,-0.726c0.401,-0 0.725,0.325 0.725,0.726c-0,0.401 -0.324,0.726 -0.725,0.726c-0.401,-0 -0.726,-0.325 -0.726,-0.726" style="fill:#231f20;fill-rule:nonzero;"></path><path d="M429.274,104.706c-0,-0.18 0.921,-0.326 2.057,-0.326c1.135,-0 2.056,0.146 2.056,0.326c-0,0.18 -0.921,0.326 -2.056,0.326c-1.136,-0 -2.057,-0.146 -2.057,-0.326" style="fill:#231f20;fill-rule:nonzero;"></path><path d="M391.883,132.45l-0,-47.362c-0,-0 -0.302,-28.746 8.075,-33.955c8.376,-5.208 22.261,-13.793 22.261,-21.124l-0,-9.26l6.641,-0c-0,-0 0.075,-19.196 11.62,-19.196c11.547,-0 11.621,19.196 11.621,19.196l6.641,-0l-0,9.26c-0,7.331 13.885,15.916 22.261,21.124c8.377,5.209 8.075,33.955 8.075,33.955l-0,47.362" style="fill:none;fill-rule:nonzero;stroke:#231f20;stroke-width:0.78px;stroke-linecap:round;"></path><path d="M402.066,84.143c-0,-0 4.691,-2.466 7.939,-2.524c3.443,-0.061 8.46,2.524 8.46,2.524l-0,24.987l-16.399,-0l-0,-24.987Zm60.429,-0c-0,-0 4.691,-2.466 7.939,-2.524c3.443,-0.061 8.461,2.524 8.461,2.524l-0,24.987l-16.4,-0l-0,-24.987Zm-46.321,-35.977c-0,-0 4.691,-2.466 7.939,-2.524c3.443,-0.062 8.46,2.524 8.46,2.524l-0,21.143l-16.399,-0l-0,-21.143Zm32.214,-0c-0,-0 4.69,-2.466 7.939,-2.524c3.442,-0.062 8.46,2.524 8.46,2.524l-0,21.143l-16.399,-0l-0,-21.143Z" style="fill:none;fill-rule:nonzero;stroke:#231f20;stroke-width:0.78px;"></path><path d="M424.374,46.375l-0,22.78m-7.904,-12.35l16.481,-0m23.555,-10.43l-0,22.78m-7.904,-12.35l16.48,-0" style="fill:none;fill-rule:nonzero;stroke:#231f20;stroke-width:0.78px;stroke-linecap:round;"></path><text x="242.346px" y="131.275px" style="font-family:'BookmanOldStyle', 'Bookman Old Style', serif;font-weight:300;font-size:18px;fill:#fff;">S<tspan x="260.169px 275.47px 286.806px 299.584px 311.281px 328.383px 345.485px 362.587px " y="131.275px 131.275px 131.275px 131.275px 131.275px 131.275px 131.275px 131.275px ">eit 1876</tspan></text></svg>